<?xml version="1.0" encoding="utf-8" ?>
<svg xmlns="http://www.w3.org/2000/svg" xmlns:xlink="http://www.w3.org/1999/xlink" width="1024" height="1024">
	<path fill="white" d="M431.986 198.471C435.484 198.503 439.82 201.117 442.986 202.619C463.645 212.416 483.98 222.936 504.535 232.956L684.266 320.452L837.141 394.503C855.683 403.617 874.538 412.196 892.841 421.773C891.62 433.025 892.363 444.761 892.388 456.08L892.438 515.582L892.479 713.864C921.449 716.429 950.145 722.361 979.08 725.405C940.87 731.059 903.065 739.411 865.038 746.124Q716.095 771.682 567.877 801.159C535.398 806.874 502.975 813.276 470.566 819.392C458.5 821.67 445.422 826.288 433.16 826.239C419.217 826.184 399.401 818.923 385.497 815.146L322.993 798.247L154.986 753.452C118.569 743.68 82.2072 733.302 45.6619 724.062C58.976 723.939 72.2947 724.372 85.6093 724.459C101.935 724.565 118.324 724.385 134.627 725.285L134.807 323.926C145.187 318.949 156.213 315.093 166.86 310.698L224.5 286.503L431.986 198.471ZM421.729 267.502C394.779 277.979 367.509 287.59 340.528 297.987L340.772 539.521Q341.289 630.714 340.782 721.907C345.895 723.07 351.027 724.181 356.124 725.412C378.147 730.187 400.133 735.331 422.197 739.888L422.594 420.564L422.548 318.82L422.557 286C422.561 280.033 422.861 273.931 422.421 267.987L421.729 267.502ZM205.104 349.514C186.11 356.094 167.004 363.342 148.457 371.102L148.463 683.542L160.09 685.872C175.427 688.932 191.049 691.536 206.24 695.204L206.489 455.511L206.23 384.156C206.202 373.014 207.425 360.815 205.879 349.799L205.104 349.514ZM332.933 301.05C321.635 305.101 310.507 310.267 299.071 313.803L299.359 713.84C302.199 714.275 305.079 714.629 307.9 715.163Q320.782 718.232 333.77 720.812C334.511 649.113 333.662 577.351 333.677 505.643Q334.266 409.091 333.884 312.538C333.852 309.792 334.431 303.34 333.016 301.115C332.997 301.085 332.961 301.072 332.933 301.05ZM439.471 270.202L439.59 740.758Q451.115 738.971 462.716 737.778C464.112 736.345 463.658 731.046 463.703 728.879Q464.152 692.551 463.614 656.224L463.606 579.97L463.625 279.999C455.736 276.541 447.175 273.934 439.471 270.202ZM479.584 285.846L480.492 735.738Q492.221 734.113 503.93 732.344C504.829 731.896 504.799 732.151 505.064 731.338C506.347 727.407 505.521 699.725 505.524 693.591Q505.814 646.008 505.538 598.425L505.227 413.351C505.224 374.23 505.537 335.08 505.016 295.964C496.758 292.818 487.362 289.946 479.584 285.846ZM240.636 335.925Q226.615 341.485 212.481 346.751L212.491 696.272L219.124 697.442L241.824 702.159C242.683 620.641 241.452 539.127 241.734 457.611Q242.113 412.035 242.029 366.457C242.01 359.733 242.865 341.24 241.304 336.173L240.636 335.925ZM520.443 302.294L520.731 539.961L520.619 655.111Q520.275 692.888 520.906 730.662Q532.238 729.645 543.384 727.364L544.5 726.722C546.185 717.69 545.236 694.932 545.226 684.735Q545.213 635.616 544.664 586.5L544.547 312.591C536.694 308.558 528.305 306.097 520.443 302.294ZM878.508 689.716L564.587 740.592Q523.375 746.763 482.064 752.23C467.97 754.106 453.814 755.649 439.776 757.916C439.632 766.935 438.155 788.016 440.146 795.898C461.76 790.427 483.641 785.901 505.355 780.833Q570.701 765.379 636.376 751.396L733.698 732.194Q783.728 721.754 833.917 712.118L862.073 706.384C867.669 705.242 873.45 703.799 879.147 703.331C879.267 699.911 880.255 692.508 878.508 689.716ZM559.944 318.747L559.908 575.06C559.914 625.137 559.223 675.322 559.968 725.39Q570.778 723.45 581.629 721.751L582.979 721.2C585.073 714.985 583.694 691.667 583.704 683.785L583.907 625.656L583.714 328.369Q572.06 322.986 559.944 318.747ZM439.057 217.658Q438.893 235.126 438.991 252.595L879.477 436.912L879.55 429.448Q721.119 351.623 561.39 276.497C535.379 264.246 509.527 251.57 483.717 238.9C469.037 231.694 454.339 223.48 439.057 217.658ZM147.292 698.255Q147.155 710.996 147.217 723.738Q247.388 750.487 348.154 774.897Q369.266 780.012 390.218 785.747C401.43 788.886 412.39 792.65 423.849 794.847C424.543 782.781 424.113 770.47 424.07 758.372C407.974 754.144 391.576 750.978 375.323 747.404Q342.807 739.922 310.198 732.857Q228.922 714.721 147.292 698.255ZM598.47 333.82L598.578 718.78C605.311 717.479 612.147 716.66 618.94 715.726L619.714 715.181C621.124 702.809 620.291 687.419 620.237 674.772Q619.916 638.43 620.008 602.088L620.209 342.818C613.053 339.884 605.357 337.29 598.47 333.82ZM633.596 348.829Q633.249 422.793 633.841 496.756L633.89 713.251C640.17 712.402 646.692 711.854 652.89 710.584L653.774 710.17C655.765 700.603 654.133 687.916 654.059 678.001L653.971 617.375L653.65 356.931C647.105 354.297 639.831 352.042 633.596 348.829ZM421.433 219.478Q344.522 252.288 266.974 283.564C227.36 299.807 187.043 315.421 148.381 333.827C148.38 341.209 148.198 348.641 148.445 356.016C162.844 350.692 177.298 345.414 191.472 339.507L206.519 333.403C206.396 329.366 205.64 323.653 208.753 320.439C209.42 319.751 209.551 319.847 210.428 319.659C211.812 320.622 212.408 322.205 212.701 323.827C213.121 326.15 212.762 328.875 212.631 331.232L242.108 320.093C241.895 316.068 241.079 311.101 243.927 307.739C244.645 306.891 244.997 306.727 246.017 306.449C247.337 307.267 247.919 308.183 248.317 309.732C248.909 312.033 248.377 315.08 248.201 317.445C254.838 314.975 261.463 312.527 268.196 310.33L267.843 300.252C270.283 299.714 272.711 299.129 275.194 298.823C275.327 301.516 275.492 304.21 275.514 306.907Q283.98 304.202 292.3 301.077C292.08 297.063 291.118 289.788 294.316 286.625C295.34 285.611 295.544 285.54 296.879 285.629C298.441 287.008 299.203 289.234 299.345 291.287C299.502 293.552 299.326 295.904 299.241 298.173C310.75 293.545 322.558 289.589 334.017 284.888C333.597 280.418 332.676 274.069 335.762 270.361C336.414 269.577 336.951 269.153 337.955 268.979C339.385 269.589 340.047 270.299 340.613 271.771C341.898 275.118 341.4 278.866 341.227 282.369C368.335 271.735 395.642 261.573 422.645 250.684C422.789 240.689 423.698 229.887 422.364 219.988C421.629 219.463 421.971 219.554 421.433 219.478ZM666.498 362.22L666.607 571.101C666.635 616.987 666.198 662.927 666.7 708.805Q675.518 707.286 684.389 706.109L685.606 705.639C687 699.402 686.09 688.271 686.118 681.303L686.327 626.461L686.061 451.453C686.01 424.558 685.075 397.432 685.832 370.564C679.501 367.532 672.771 365.286 666.498 362.22ZM291.627 316.483L277.35 322.273L276.902 703.866C276.908 705.573 276.582 708.183 277.737 709.431L279.246 709.674L292.378 712.341L292.493 328.75C292.483 326.328 293.151 318.362 291.914 316.576L291.627 316.483ZM262.881 327.504C258.022 329.284 253.143 331.262 248.224 332.856C247.591 347.754 247.957 362.752 248.006 377.665L248.19 454.967L248.492 611.996C248.49 637.008 247.738 662.022 247.979 687.032C248.01 690.323 247.215 701.429 249.269 703.801C250.378 704.076 251.481 704.394 252.615 704.548L263.758 706.519L263.68 407.327L263.69 358.529C263.73 351.425 264.958 333.452 263.366 327.867L262.881 327.504ZM698.937 375.229L698.85 703.944C704.168 703.045 709.496 702.035 714.832 701.264L716.058 700.695C717.543 694.888 716.53 683.6 716.515 677.241L716.394 625.5L716.078 382.018C710.408 380.025 704.298 377.924 698.937 375.229ZM728.566 387.148L728.427 582.546Q727.988 640.906 728.435 699.266L743.887 697.073C745.524 694.922 745.239 688.63 745.311 685.823C745.568 675.681 745.092 665.467 745.088 655.316L745.25 588.499Q745.911 491.692 745.501 394.883C739.903 392.169 734.309 389.543 728.566 387.148ZM756.509 399.684L756.516 593.069C756.508 627.121 756.073 661.215 756.504 695.261C761.449 694.515 766.562 694.017 771.448 693.02C772.413 679.277 771.658 665.11 771.712 651.314L772.023 569.716L772.236 457.358C772.205 440.105 772.567 422.802 771.972 405.56C766.847 403.545 761.739 401.415 756.509 399.684ZM782.512 409.807L782.168 576.731C782.025 614.784 781.009 653.128 782.416 691.152Q788.882 690.025 795.392 689.195C796.734 687.553 796.38 682.672 796.428 680.556C796.779 665.143 796.385 649.691 796.4 634.273L796.525 542.088C796.536 499.925 797.624 457.647 796.513 415.505Q789.478 412.741 782.512 409.807ZM806.422 420.232C805.887 466.671 806.353 513.165 806.386 559.609C806.416 602.362 805.958 645.166 806.603 687.914C810.665 687.365 814.773 686.651 818.856 686.325C819.842 685.051 819.724 683.61 819.761 682.021C819.923 675.177 819.508 668.256 819.502 661.4L819.496 604.848L819.49 425.954Q812.932 423.149 806.422 420.232ZM829.3 430.362L829.037 684.345C832.48 683.834 835.944 683.38 839.37 682.766L840.366 682.182C841.938 674.754 840.994 665.694 840.98 658.041L841.019 617.251Q841.307 526.094 840.529 434.94Q834.888 432.716 829.3 430.362ZM849.718 438.336Q849.834 468.935 849.478 499.532L849.606 614.972C849.646 637.186 849.046 659.635 849.879 681.819C853.047 681.128 856.17 680.612 859.388 680.216L860.374 679.672C861.832 673.688 860.882 665.467 860.847 659.282L860.661 621.802Q861.372 532.472 860.676 443.142C857.042 441.527 853.42 439.784 849.718 438.336ZM870.476 447.192Q870.107 510.75 870.418 574.306C870.475 608.813 870.166 643.361 870.628 677.863C873.549 677.458 876.473 677.083 879.37 676.527C880.216 668.09 879.935 659.39 879.944 650.913L879.815 608.049L879.88 506.279C879.864 487.83 879.568 469.337 879.82 450.892C876.728 449.677 873.486 448.585 870.476 447.192Z"/>
	<path fill="white" d="M185.498 327.376C186.271 327.467 187.443 327.497 188.132 327.832C188.833 328.174 189.452 328.647 189.692 329.402C190.291 331.287 189.107 332.978 188.212 334.556C187.308 334.559 186.476 334.414 185.584 334.279C184.911 333.749 184.343 333.526 184.075 332.671C183.432 330.624 184.482 329.066 185.498 327.376Z"/>
	<path fill="white" d="M174.263 330.262Q175.425 330.812 176.36 331.695C177.072 332.381 177.536 333.525 177.452 334.504C177.248 336.871 175.713 338.123 174.083 339.646C173.361 339.292 172.695 338.946 172.106 338.38C171.239 337.548 170.693 336.373 170.847 335.15C171.112 333.037 172.778 331.593 174.263 330.262Z"/>
	<path fill="white" d="M159.535 335.973C160.889 336.399 162.426 336.833 163.206 338.142C163.635 338.862 163.81 339.669 163.658 340.483C163.232 342.76 161.797 343.702 159.996 344.899C158.941 344.517 157.747 344.136 156.999 343.251C156.142 342.238 155.732 341.392 155.965 340.039C156.336 337.892 157.847 337.025 159.535 335.973Z"/>
	<path fill="white" d="M383.753 244.481C384.761 244.916 385.799 245.447 386.55 246.274Q386.742 246.487 386.91 246.721Q387.077 246.954 387.217 247.205Q387.357 247.456 387.468 247.721Q387.579 247.986 387.659 248.261Q387.74 248.537 387.789 248.82Q387.839 249.103 387.856 249.389Q387.873 249.676 387.858 249.963Q387.843 250.25 387.796 250.533C387.344 253.123 385.781 254.47 383.785 255.996C382.226 255.544 380.564 255.13 379.612 253.678C378.872 252.551 378.626 251.574 378.86 250.244C379.367 247.354 381.438 245.933 383.753 244.481Z"/>
	<path fill="white" d="M365.214 251.82C366.425 251.981 367.5 252.257 368.452 253.088C369.504 254.005 370.07 255.382 370.06 256.763C370.039 259.823 368.561 261.722 366.421 263.714C364.827 263.569 363.442 263.429 362.384 262.063C361.538 260.97 361.243 259.593 361.398 258.241C361.734 255.306 362.969 253.627 365.214 251.82Z"/>
	<path fill="white" d="M405.23 231.022C406.689 230.961 408.181 230.929 409.598 231.344C411.474 231.894 413.183 233.193 414.129 234.912C415.611 237.601 415.349 241.066 414.426 243.889C412.894 248.569 409.714 251.974 405.327 254.072L404.693 253.955C401.555 253.349 398.592 252.325 396.797 249.487C395.242 247.028 395.226 243.851 396.023 241.131C397.513 236.045 400.77 233.385 405.23 231.022Z"/>
	<path fill="white" d="M154.924 705.876C155.54 706.113 156.196 706.377 156.741 706.754C158.045 707.654 158.744 709.332 158.951 710.864C159.369 713.957 158.17 716.864 156.38 719.301C155.47 718.894 155.6 719.002 154.773 718.435C153.398 717.492 152.65 715.731 152.421 714.123C151.967 710.93 153.024 708.353 154.924 705.876Z"/>
	<path fill="white" d="M398.678 760.36C404.387 761.16 409.951 762.804 415.497 764.335L415.443 785.129C409.774 784.225 404.122 782.522 398.567 781.055Q398.396 770.706 398.678 760.36Z"/>
	<path fill="white" d="M453.333 232.496C456.219 232.975 458.248 233.526 460.334 235.675Q460.69 236.037 461.007 236.434Q461.324 236.831 461.598 237.258Q461.872 237.686 462.1 238.14Q462.328 238.593 462.508 239.068Q462.688 239.543 462.817 240.034Q462.947 240.525 463.025 241.027Q463.103 241.529 463.129 242.036Q463.154 242.543 463.127 243.05C462.96 246.66 461.385 248.631 458.795 250.958C456.4 250.993 454.512 250.499 452.746 248.809C450.503 246.662 449.587 243.531 449.658 240.487C449.741 236.947 450.807 234.888 453.333 232.496Z"/>
	<path fill="white" d="M456.068 767.566C457.214 767.545 458.612 767.671 459.602 768.287C460.851 769.064 461.665 770.498 462.098 771.861C462.972 774.609 462.515 777.82 461.053 780.292C459.974 782.115 458.786 782.502 456.796 783.001C454.959 782.99 453.005 783.13 451.609 781.696C448.905 778.92 450.273 772.79 450.569 769.367C452.365 768.604 454.192 768.093 456.068 767.566Z"/>
	<path fill="white" d="M232.341 510.189C232.847 510.041 233.347 510.154 233.867 510.199C235.725 513.351 234.599 521.49 234.48 525.274C230.497 525.972 226.481 526.52 222.482 527.125C221.164 527.077 221.757 527.266 220.69 526.604C218.876 522.573 219.862 516.593 220.053 512.232L232.341 510.189Z"/>
	<path fill="white" d="M233.214 461.64L233.98 461.991C235.668 465.215 234.607 473.382 234.541 477.159C230.028 477.686 225.545 478.889 221.115 479.883L220.176 479.654C219.03 475.15 219.614 469.55 219.62 464.902C224.059 463.561 228.693 462.679 233.214 461.64Z"/>
	<path fill="white" d="M321.603 495.671C322.897 495.532 323.554 495.318 324.763 495.845C326.802 499.485 325.603 506.575 325.503 510.689C320.85 511.341 316.21 512.28 311.581 513.096C310.419 513.285 310.2 513.444 309.05 513.031C307.025 509.077 308.137 502.192 308.313 497.8L321.603 495.671Z"/>
	<path fill="white" d="M324.541 442.626L324.858 442.783C327.168 445.446 325.827 455.324 325.588 458.692L309.074 462.346C308.83 462.112 308.546 461.914 308.344 461.643C306.442 459.09 307.588 450.267 307.722 446.965C313.263 445.348 318.947 444.056 324.541 442.626Z"/>
	<path fill="white" d="M198.821 470.183C199.372 470.148 199.899 470.364 200.429 470.506C202.391 473.461 201.362 480.708 201.201 484.225C189.974 487.583 178.082 489.596 166.615 492.029L165.007 492.122L164.126 491.246C162.759 487.088 163.644 482.353 164.037 478.062C175.424 474.973 187.188 472.187 198.821 470.183Z"/>
	<path fill="white" d="M197.789 516.67C198.623 516.53 199.331 516.549 200.173 516.572C202.421 519.029 201.344 527.49 201.279 530.66C190.493 533.928 178.259 535.001 167.122 536.828C166.078 537.027 165.472 537.219 164.487 536.747C162.216 533.365 163.66 526.402 164.092 522.504C175.203 520.161 186.583 518.519 197.789 516.67Z"/>
	<path fill="white" d="M396.697 482.679C397.982 482.628 397.981 482.401 399.063 483.23C400.909 487.774 399.757 494.364 399.479 499.213C384.227 502.61 368.538 504.392 353.115 506.942C352.17 507.074 351.648 506.993 350.742 506.699C348.194 503.364 349.42 495.462 349.518 491.259C365.088 487.833 380.985 485.407 396.697 482.679Z"/>
	<path fill="white" d="M398.031 425.608L399.141 426.09C400.951 430.628 399.807 437.964 399.62 442.858C383.684 446.651 367.503 449.73 351.499 453.267L350.393 452.539C348.443 448.267 349.404 441.827 349.553 437.171C365.501 432.824 381.883 429.147 398.031 425.608Z"/>
</svg>
